HIERARCHY
ROOT Hips
{
  OFFSET 0.849866 78.6569 -0.536788
  CHANNELS 6 Xposition Yposition Zposition Zrotation Xrotation Yrotation
  JOINT Bip01_Pelvis
  {
    OFFSET 0 0 0
    CHANNELS 6 Xposition Yposition Zposition Zrotation Xrotation Yrotation
    JOINT BN_Tail_01
    {
      OFFSET -5.52397 -0.332285 0
      CHANNELS 6 Xposition Yposition Zposition Zrotation Xrotation Yrotation
      JOINT BN_Tail_02
      {
        OFFSET 6.48885 -2.032e-005 0
        CHANNELS 6 Xposition Yposition Zposition Zrotation Xrotation Yrotation
        JOINT BN_Tail_03
        {
          OFFSET 7.08759 1.016e-005 -0.00261112
          CHANNELS 6 Xposition Yposition Zposition Zrotation Xrotation Yrotation
          End Site
          {
            OFFSET 0 0 0
          }
        }
      }
    }
    JOINT Bip01_Spine
    {
      OFFSET 4.02227 0.398968 0
      CHANNELS 6 Xposition Yposition Zposition Zrotation Xrotation Yrotation
      JOINT BN_UpperArm_R_01
      {
        OFFSET 4.84413 -3.22857 -3.65581
        CHANNELS 6 Xposition Yposition Zposition Zrotation Xrotation Yrotation
        JOINT BN_Forearm_R_01
        {
          OFFSET 8.51614 0 0
          CHANNELS 6 Xposition Yposition Zposition Zrotation Xrotation Yrotation
          JOINT BN_hand_R_01
          {
            OFFSET 10.1924 0 0
            CHANNELS 6 Xposition Yposition Zposition Zrotation Xrotation Yrotation
            JOINT BN_Finger_R_02
            {
              OFFSET 14.5949 -1.43855 0.585079
              CHANNELS 6 Xposition Yposition Zposition Zrotation Xrotation Yrotation
              End Site
              {
                OFFSET 0 0 0
              }
            }
            JOINT BN_Finger_R_01
            {
              OFFSET 14.4623 0 0
              CHANNELS 6 Xposition Yposition Zposition Zrotation Xrotation Yrotation
              End Site
              {
                OFFSET 0 0 0
              }
            }
          }
        }
      }
      JOINT BN_UpperArm_L_01
      {
        OFFSET 4.84412 -3.22858 3.65557
        CHANNELS 6 Xposition Yposition Zposition Zrotation Xrotation Yrotation
        JOINT BN_Forearm_L_01
        {
          OFFSET 8.51611 0 0
          CHANNELS 6 Xposition Yposition Zposition Zrotation Xrotation Yrotation
          JOINT BN_hand_L_01
          {
            OFFSET 10.1924 0 0
            CHANNELS 6 Xposition Yposition Zposition Zrotation Xrotation Yrotation
            JOINT BN_Finger_L_01
            {
              OFFSET 14.4623 0 0
              CHANNELS 6 Xposition Yposition Zposition Zrotation Xrotation Yrotation
              End Site
              {
                OFFSET 0 0 0
              }
            }
            JOINT BN_Finger_L_02
            {
              OFFSET 14.5949 1.43855 0.585071
              CHANNELS 6 Xposition Yposition Zposition Zrotation Xrotation Yrotation
              End Site
              {
                OFFSET 0 0 0
              }
            }
          }
        }
      }
      JOINT Bip01_R_Thigh
      {
        OFFSET -4.03411 -0.254132 -3.45377
        CHANNELS 6 Xposition Yposition Zposition Zrotation Xrotation Yrotation
        JOINT Bip01_R_Calf
        {
          OFFSET 3.92618 0 0
          CHANNELS 6 Xposition Yposition Zposition Zrotation Xrotation Yrotation
          JOINT Bip01_R_HorseLink
          {
            OFFSET 6.12319 0 0
            CHANNELS 6 Xposition Yposition Zposition Zrotation Xrotation Yrotation
            JOINT Bip01_R_Foot
            {
              OFFSET 9.94776 0 0
              CHANNELS 6 Xposition Yposition Zposition Zrotation Xrotation Yrotation
              JOINT Bip01_R_Toe3
              {
                OFFSET 0.881252 -0.110953 0.0158496
                CHANNELS 6 Xposition Yposition Zposition Zrotation Xrotation Yrotation
                JOINT Bip01_R_Toe31
                {
                  OFFSET 2.32137 0 0
                  CHANNELS 6 Xposition Yposition Zposition Zrotation Xrotation Yrotation
                  JOINT Bip01_R_Toe32
                  {
                    OFFSET 1.63293 0 0
                    CHANNELS 6 Xposition Yposition Zposition Zrotation Xrotation Yrotation
                    JOINT Bip01_R_Toe3Nub
                    {
                      OFFSET 1.72131 0 0
                      CHANNELS 6 Xposition Yposition Zposition Zrotation Xrotation Yrotation
                      End Site
                      {
                        OFFSET 0 0 0
                      }
                    }
                  }
                }
              }
              JOINT Bip01_R_Toe2
              {
                OFFSET 0.994751 0.967285 -1.09428
                CHANNELS 6 Xposition Yposition Zposition Zrotation Xrotation Yrotation
                JOINT Bip01_R_Toe21
                {
                  OFFSET 2.20201 0 0
                  CHANNELS 6 Xposition Yposition Zposition Zrotation Xrotation Yrotation
                  JOINT Bip01_R_Toe22
                  {
                    OFFSET 1.84925 0 0
                    CHANNELS 6 Xposition Yposition Zposition Zrotation Xrotation Yrotation
                    JOINT Bip01_R_Toe2Nub
                    {
                      OFFSET 1.70976 0 0
                      CHANNELS 6 Xposition Yposition Zposition Zrotation Xrotation Yrotation
                      End Site
                      {
                        OFFSET 0 0 0
                      }
                    }
                  }
                }
              }
              JOINT Bip01_R_Toe1
              {
                OFFSET 1.3748 1.34027 -0.0712419
                CHANNELS 6 Xposition Yposition Zposition Zrotation Xrotation Yrotation
                JOINT Bip01_R_Toe11
                {
                  OFFSET 2.26122 0 0
                  CHANNELS 6 Xposition Yposition Zposition Zrotation Xrotation Yrotation
                  JOINT Bip01_R_Toe12
                  {
                    OFFSET 2.22215 0 0
                    CHANNELS 6 Xposition Yposition Zposition Zrotation Xrotation Yrotation
                    JOINT Bip01_R_Toe1Nub
                    {
                      OFFSET 1.61867 0 0
                      CHANNELS 6 Xposition Yposition Zposition Zrotation Xrotation Yrotation
                      End Site
                      {
                        OFFSET 0 0 0
                      }
                    }
                  }
                }
              }
              JOINT Bip01_R_Toe0
              {
                OFFSET 1.40695 0.687986 0.883783
                CHANNELS 6 Xposition Yposition Zposition Zrotation Xrotation Yrotation
                JOINT Bip01_R_Toe01
                {
                  OFFSET 2.26828 0 0
                  CHANNELS 6 Xposition Yposition Zposition Zrotation Xrotation Yrotation
                  JOINT Bip01_R_Toe02
                  {
                    OFFSET 2.09769 0 0
                    CHANNELS 6 Xposition Yposition Zposition Zrotation Xrotation Yrotation
                    JOINT Bip01_R_Toe0Nub
                    {
                      OFFSET 1.53753 0 0
                      CHANNELS 6 Xposition Yposition Zposition Zrotation Xrotation Yrotation
                      End Site
                      {
                        OFFSET 0 0 0
                      }
                    }
                  }
                }
              }
            }
          }
        }
      }
      JOINT Bip01_L_Thigh
      {
        OFFSET -4.03411 -0.254147 3.45377
        CHANNELS 6 Xposition Yposition Zposition Zrotation Xrotation Yrotation
        JOINT Bip01_L_Calf
        {
          OFFSET 3.92616 0 0
          CHANNELS 6 Xposition Yposition Zposition Zrotation Xrotation Yrotation
          JOINT Bip01_L_HorseLink
          {
            OFFSET 6.1232 0 0
            CHANNELS 6 Xposition Yposition Zposition Zrotation Xrotation Yrotation
            JOINT Bip01_L_Foot
            {
              OFFSET 9.94775 0 0
              CHANNELS 6 Xposition Yposition Zposition Zrotation Xrotation Yrotation
              JOINT Bip01_L_Toe3
              {
                OFFSET 0.881246 -0.110986 -0.0157582
                CHANNELS 6 Xposition Yposition Zposition Zrotation Xrotation Yrotation
                JOINT Bip01_L_Toe31
                {
                  OFFSET 2.32136 0 0
                  CHANNELS 6 Xposition Yposition Zposition Zrotation Xrotation Yrotation
                  JOINT Bip01_L_Toe32
                  {
                    OFFSET 1.63293 0 0
                    CHANNELS 6 Xposition Yposition Zposition Zrotation Xrotation Yrotation
                    JOINT Bip01_L_Toe3Nub
                    {
                      OFFSET 1.7213 0 0
                      CHANNELS 6 Xposition Yposition Zposition Zrotation Xrotation Yrotation
                      End Site
                      {
                        OFFSET 0 0 0
                      }
                    }
                  }
                }
              }
              JOINT Bip01_L_Toe2
              {
                OFFSET 0.994649 0.967162 1.09447
                CHANNELS 6 Xposition Yposition Zposition Zrotation Xrotation Yrotation
                JOINT Bip01_L_Toe21
                {
                  OFFSET 2.202 0 0
                  CHANNELS 6 Xposition Yposition Zposition Zrotation Xrotation Yrotation
                  JOINT Bip01_L_Toe22
                  {
                    OFFSET 1.84926 0 0
                    CHANNELS 6 Xposition Yposition Zposition Zrotation Xrotation Yrotation
                    JOINT Bip01_L_Toe2Nub
                    {
                      OFFSET 1.70976 0 0
                      CHANNELS 6 Xposition Yposition Zposition Zrotation Xrotation Yrotation
                      End Site
                      {
                        OFFSET 0 0 0
                      }
                    }
                  }
                }
              }
              JOINT Bip01_L_Toe1
              {
                OFFSET 1.37483 1.34021 0.0715086
                CHANNELS 6 Xposition Yposition Zposition Zrotation Xrotation Yrotation
                JOINT Bip01_L_Toe11
                {
                  OFFSET 2.26124 0 0
                  CHANNELS 6 Xposition Yposition Zposition Zrotation Xrotation Yrotation
                  JOINT Bip01_L_Toe12
                  {
                    OFFSET 2.22214 0 0
                    CHANNELS 6 Xposition Yposition Zposition Zrotation Xrotation Yrotation
                    JOINT Bip01_L_Toe1Nub
                    {
                      OFFSET 1.61867 0 0
                      CHANNELS 6 Xposition Yposition Zposition Zrotation Xrotation Yrotation
                      End Site
                      {
                        OFFSET 0 0 0
                      }
                    }
                  }
                }
              }
              JOINT Bip01_L_Toe0
              {
                OFFSET 1.40707 0.688009 -0.883564
                CHANNELS 6 Xposition Yposition Zposition Zrotation Xrotation Yrotation
                JOINT Bip01_L_Toe01
                {
                  OFFSET 2.26828 0 0
                  CHANNELS 6 Xposition Yposition Zposition Zrotation Xrotation Yrotation
                  JOINT Bip01_L_Toe02
                  {
                    OFFSET 2.0977 0 0
                    CHANNELS 6 Xposition Yposition Zposition Zrotation Xrotation Yrotation
                    JOINT Bip01_L_Toe0Nub
                    {
                      OFFSET 1.53752 0 0
                      CHANNELS 6 Xposition Yposition Zposition Zrotation Xrotation Yrotation
                      End Site
                      {
                        OFFSET 0 0 0
                      }
                    }
                  }
                }
              }
            }
          }
        }
      }
      JOINT Bip01_Spine1
      {
        OFFSET 4.90674 -0.00437896 0
        CHANNELS 6 Xposition Yposition Zposition Zrotation Xrotation Yrotation
        JOINT Bip01_Neck
        {
          OFFSET 5.56447 -1.28357 0
          CHANNELS 6 Xposition Yposition Zposition Zrotation Xrotation Yrotation
          JOINT Bip01_Neck1
          {
            OFFSET 2.79308 -0.00219964 0
            CHANNELS 6 Xposition Yposition Zposition Zrotation Xrotation Yrotation
            JOINT Bip01_Head
            {
              OFFSET 2.79272 0 0
              CHANNELS 6 Xposition Yposition Zposition Zrotation Xrotation Yrotation
              JOINT BN_Mouth_01
              {
                OFFSET 4.19089 0.0665938 0
                CHANNELS 6 Xposition Yposition Zposition Zrotation Xrotation Yrotation
                End Site
                {
                  OFFSET 0 0 0
                }
              }
              JOINT Bip01_HeadNub
              {
                OFFSET 6.95118 0 0
                CHANNELS 6 Xposition Yposition Zposition Zrotation Xrotation Yrotation
                End Site
                {
                  OFFSET 0 0 0
                }
              }
            }
          }
        }
      }
    }
  }
}
MOTION
Frames:	3
Frame Time:	0.0333333
-1.41374 15.1779 -0.462858 -148.099 -90 -90 0 0 0 -89.9987 -8.52724 -89.9987 -5.52397 -0.332268 -1.11022e-016 -5.20255 0.00175476 179.957 6.48885 7.6294e-006 0.00426974 -7.75671 -3.11917e-009 -1.31317e-009 7.08758 3.8147e-006 0.0042037 -20.5277 -0.0302531 0.0267538 3.99184 -0.634984 -1.3445e-009 -1.30058 -0.500378 -1.83909 4.84412 -3.22854 -3.65581 -78.0703 -2.97542 123.611 8.5161 4.79617e-014 -3.8147e-006 45.3166 33.5911 14.9837 10.1924 -2.45138e-013 -3.8147e-006 -25.5405 -3.22829 38.8895 14.5949 -1.43856 0.585081 -47.6715 11.508 4.28756 14.4623 -5.72206e-006 1.90735e-006 -2.1314 3.30738 4.433 4.84413 -3.22854 3.65557 102.269 -3.62346 -59.3022 8.51611 1.77636e-015 3.8147e-006 -45.3166 -33.5911 14.9837 10.1924 3.8147e-006 1.90735e-006 25.5405 3.22828 38.8895 14.4623 -3.81471e-006 1.90735e-006 47.6716 -11.508 4.28756 14.5949 1.43855 0.585079 2.1314 -3.30738 4.433 -4.11444 0.575027 -3.31869 -126.264 -17.0684 176.396 3.92616 -1.90735e-006 -9.53675e-007 -89.8134 -2.01157e-006 -1.72617e-005 6.1232 1.42109e-014 9.53675e-007 82.1315 1.28583e-006 -1.15188e-005 9.94774 7.62944e-006 -9.12604e-014 -65.0384 11.6945 -9.13214 0.881233 -0.110966 0.0158088 117.058 -3.02394 177.216 2.32137 3.81475e-006 -1.60538e-013 15.4305 8.10342e-007 1.18093e-006 1.63292 7.62951e-006 6.21725e-015 -8.63912e-013 9.97855e-006 -5.36214e-007 1.72132 -1.70977e-014 0 5.30728e-007 -2.69166e-007 3.23005e-007 0.994689 0.967274 -1.09433 77.3827 -12.0856 25.7256 2.202 7.62951e-006 -4.76837e-007 17.5932 1.94098e-006 9.60623e-006 1.84924 -3.81476e-006 -1.19209e-007 1.48448e-013 -1.64196e-005 1.29061e-006 1.70977 -7.32759e-015 -4.44089e-016 7.15767e-007 3.18013e-007 4.60125e-007 1.37479 1.34026 -0.0713077 81.7935 1.18266 -2.69357 2.26123 1.5259e-005 2.38419e-007 15.6952 -1.59374e-005 5.9821e-006 2.22212 7.62951e-006 3.11307e-013 1.8487e-015 -2.48216e-006 -4.52891e-007 1.61867 0 -2.38419e-007 2.55437e-008 2.9589e-008 8.30071e-008 1.40697 0.687971 0.883715 91.846 4.10735 -31.7464 2.26827 7.62951e-006 9.53675e-007 12.9213 1.46672e-005 -3.82168e-006 2.09769 3.81476e-006 4.68958e-013 -5.88437e-006 8.94681e-006 4.88127e-007 1.53753 -2.82557e-014 -9.53674e-007 -4.4712e-007 8.98731e-006 2.29545e-006 -3.89238 0.515799 3.58532 -101.4 5.06125 175.317 3.92615 -7.62941e-006 -4.92939e-014 -91.2913 -4.75232e-005 -1.81097e-005 6.12318 -7.62942e-006 1.55431e-014 124.326 -0.00157565 -0.00230691 9.94776 -5.986e-011 -0.00107574 -68.1734 -14.9244 2.65055 0.88123 -0.110978 -0.0158851 128.078 4.06506 -177.931 2.32135 -4.76843e-007 0 15.4384 0.0138662 0.0203998 1.63293 -3.81475e-006 -4.76837e-007 3.28507e-006 0.00713784 -8.27703e-007 1.72131 -1.99843e-015 2.38419e-007 -179.962 0.0116023 0.0010207 0.994828 0.967339 1.09416 68.2237 12.6068 -24.6005 2.202 0.000686654 0.00056076 11.3704 0.033827 -0.00707124 1.84924 -0.000913632 -0.00102234 0.00166064 0.0140949 -0.0191409 1.70977 1.90738e-006 -3.8147e-006 179.962 0.0116843 -0.00118985 1.37483 1.34024 0.0710766 73.8377 -0.758174 2.61415 2.26123 -3.81464e-006 0.00086093 17.2288 -8.59648e-005 -0.000276967 2.22213 1.1532e-010 0.000980377 -0.00263715 -0.0135153 0.0428534 1.61867 4.44096e-016 2.38418e-007 -179.962 -0.0101593 0.000269895 1.40692 0.687872 -0.883903 83.5542 -3.99425 31.6713 2.26827 0 3.81469e-006 29.4904 -0.00494529 -0.00874176 2.0977 1.77638e-015 1.77635e-015 -0.00222915 -1.72687e-005 -2.1288e-007 1.53753 3.12422e-013 0 -179.961 -0.00360147 -0.00574796 4.9071 -0.00428009 -2.38424e-007 -6.82524 0.00144305 -1.90654 5.56426 -1.28359 -9.56699e-007 8.30557 0.441153 1.92037 2.79364 -0.00202179 2.78744e-012 12.2266 0.407415 1.9007 2.79273 7.6294e-006 1.19209e-007 14.3789 0.319487 -0.203734 4.19087 0.0665894 -2.38415e-007 -170.195 0.25337 179.766 6.95116 -2.4869e-014 -8.88178e-016 9.69497e-007 9.96127e-006 -4.30302e-009 
-1.19997 14.1911 -0.414402 122.74 -90 -177.742 0 0 0 -89.9987 -7.79498 -89.9987 -5.52397 -0.332268 -1.11022e-016 -3.47391 0.00109863 179.957 6.48885 7.6294e-006 0.00426974 -9.99005 -3.64409e-009 -1.34027e-009 7.08758 3.8147e-006 0.0042037 -23.9298 -0.0320809 0.0255728 3.99957 -0.582381 -1.74608e-009 -0.431879 -0.520972 -1.90454 4.84413 -3.22854 -3.65581 -76.6851 -3.90926 116.981 8.5161 2.66454e-014 -3.8147e-006 51.3598 37.6648 8.31578 10.1924 -3.1264e-013 -3.8147e-006 -30.7481 0.504287 42.9543 14.5949 -1.43856 0.585081 -46.9792 8.02214 8.52838 14.4623 -5.72206e-006 1.90735e-006 -6.07577 2.51922 6.28955 4.84413 -3.22854 3.65557 103.552 -4.64319 -65.7105 8.51611 3.55272e-015 3.8147e-006 -51.3598 -37.6648 8.31578 10.1924 3.81471e-006 1.90735e-006 30.7482 -0.504307 42.9543 14.4623 -3.81471e-006 1.90735e-006 46.9792 -8.02214 8.52838 14.5949 1.43855 0.585079 6.07578 -2.51922 6.28955 -4.1165 0.584703 -3.31378 -132.614 -15.3918 176.43 3.92616 -1.90735e-006 -9.53675e-007 -98.2906 7.50018e-007 -1.70502e-005 6.1232 1.24345e-014 9.53675e-007 87.0322 3.00673e-007 -1.13452e-005 9.94774 7.62944e-006 -9.14824e-014 -64.1174 12.4729 -8.67157 0.881233 -0.110966 0.0158088 115.14 -3.20705 176.826 2.32137 3.81475e-006 -1.52323e-013 15.4305 8.33657e-007 1.15385e-006 1.63292 7.62951e-006 1.82077e-014 -8.64363e-013 9.97855e-006 -5.36197e-007 1.72132 -1.35449e-014 8.88179e-016 5.30728e-007 -2.69166e-007 3.23005e-007 0.994689 0.967274 -1.09433 75.4654 -11.9166 25.3518 2.202 7.62951e-006 -4.76837e-007 17.5932 -8.33712e-007 9.7483e-007 1.84924 -3.81476e-006 -1.19209e-007 1.49442e-013 -1.64196e-005 1.29061e-006 1.70977 -9.10398e-015 0 7.15767e-007 3.18013e-007 4.60125e-007 1.37479 1.34026 -0.0713077 80.1357 1.23935 -3.0533 2.26123 1.5259e-005 2.38419e-007 15.6952 -1.59353e-005 5.71031e-006 2.22212 7.62951e-006 3.08198e-013 2.44506e-015 -2.48216e-006 -4.52891e-007 1.61867 -2.22048e-016 -2.38419e-007 2.55437e-008 2.9589e-008 8.30071e-008 1.40697 0.687971 0.883715 89.7959 4.19619 -32.6384 2.26827 7.62951e-006 9.53675e-007 12.9213 1.48945e-005 -3.53437e-006 2.09769 3.81476e-006 4.57412e-013 -5.88437e-006 8.94681e-006 4.88127e-007 1.53753 -2.79226e-014 -9.53674e-007 -4.4712e-007 8.98731e-006 2.29545e-006 -3.88681 0.521407 3.58963 -92.4259 -0.877459 175.449 3.92615 -7.62941e-006 -3.10862e-014 -92.5066 -0.00504745 -0.000238218 6.12318 -7.62942e-006 -3.9968e-014 126.018 -0.0016436 -0.00225964 9.94776 -2.49269e-011 -0.00107574 -56.2538 -16.6499 3.15963 0.881231 -0.110978 -0.0158851 119.449 3.70369 -177.393 2.32135 -4.76843e-007 6.66134e-016 15.4371 0.0128377 0.0166761 1.63293 -3.81475e-006 -4.76837e-007 3.28507e-006 0.00713784 -8.28245e-007 1.72131 -2.88662e-015 2.38419e-007 -179.962 0.0116023 0.0010207 0.994828 0.967338 1.09416 71.5641 11.0659 -25.2932 2.202 0.000686654 0.00056076 11.381 0.0287633 -0.0322271 1.84924 -0.000913632 -0.00102234 0.00201595 0.0140948 -0.0195235 1.70977 1.90737e-006 -3.8147e-006 179.962 0.0116843 -0.00118985 1.37483 1.34024 0.0710766 73.0552 -0.797848 2.60232 2.26123 -3.81465e-006 0.00086093 17.2341 -0.00855322 -0.0275713 2.22213 9.15269e-011 0.000980377 -0.00480162 -0.013517 0.044152 1.61867 0 2.38418e-007 -179.962 -0.0101593 0.000269895 1.40692 0.687871 -0.883903 81.4618 -5.26529 31.5039 2.26827 -4.44095e-016 3.81469e-006 29.469 3.56989e-006 9.62272e-006 2.0977 -1.77638e-015 0 -3.7192e-009 -1.72687e-005 1.76818e-006 1.53753 3.36625e-013 8.88177e-016 -179.961 -0.00360147 -0.00574796 4.9071 -0.00428009 -2.38424e-007 -7.26256 -0.000721619 -1.97652 5.56426 -1.28359 -9.56651e-007 6.04711 0.409556 1.85205 2.79364 -0.00202179 2.25053e-012 11.1412 0.361303 1.83066 2.79273 7.6294e-006 1.19209e-007 15.6742 0.320389 0.0194431 4.19087 0.0665894 -2.38427e-007 -169.832 0.272687 179.75 6.95116 -2.4869e-014 -2.22045e-016 9.69497e-007 9.96127e-006 -4.30302e-009 
-0.898644 13.3803 -0.297994 139.143 -90 -159.514 0 0 0 -89.9987 -7.01156 -89.9987 -5.52397 -0.332268 -1.11022e-016 -1.88746 0.000122075 179.98 6.48885 7.6294e-006 0.00426974 -12.0384 -2.38653e-009 -1.30364e-009 7.08758 3.8147e-006 0.0042037 -27.0492 -0.0288175 0.0147656 4.00738 -0.529257 -1.51079e-009 0.282845 -0.497394 -1.71597 4.84413 -3.22854 -3.65581 -75.2983 -5.15678 109.492 8.5161 -5.50671e-014 -3.8147e-006 58.845 41.2549 0.460558 10.1924 -3.96129e-013 -3.8147e-006 -36.6998 3.99667 46.7281 14.5949 -1.43856 0.585081 -45.5808 4.37216 12.5493 14.4623 -5.72206e-006 1.90735e-006 -10.0291 1.59557 8.10364 4.84413 -3.22854 3.65556 104.805 -5.90565 -72.6569 8.51611 5.32908e-015 3.8147e-006 -58.845 -41.2549 0.460546 10.1924 3.81471e-006 1.90735e-006 36.6998 -3.99668 46.7281 14.4623 -3.81471e-006 1.90735e-006 45.5808 -4.37216 12.5493 14.5949 1.43855 0.585079 10.0292 -1.59556 8.10364 -4.10677 0.580796 -3.32759 -138.271 -13.2325 177.45 3.92616 -1.90735e-006 -9.53675e-007 -107.165 3.69159e-006 -1.65344e-005 6.1232 2.22045e-014 9.53675e-007 92.542 0.00252446 -0.000123077 9.94774 7.62944e-006 -9.55902e-014 -62.4892 13.5643 -8.01347 0.881233 -0.110966 0.0158088 113.755 -3.21451 176.77 2.32137 3.81475e-006 -1.35447e-013 15.4305 8.33012e-007 1.00037e-006 1.63292 7.62951e-006 4.9516e-014 -9.96011e-013 9.97855e-006 9.48162e-006 1.72132 -1.45997e-014 1.11022e-016 5.30728e-007 -2.69166e-007 3.23005e-007 0.994689 0.967274 -1.09433 74.2338 -11.7809 25.2831 2.202 7.6295e-006 -4.76837e-007 17.5932 -9.03425e-007 1.04216e-006 1.84924 -3.81476e-006 -1.19209e-007 1.49728e-013 -1.64196e-005 1.29061e-006 1.70977 -1.55434e-014 8.88178e-016 7.15767e-007 3.18013e-007 4.60125e-007 1.37479 1.34026 -0.0713077 79.4127 1.14888 -3.06798 2.26123 1.5259e-005 2.38419e-007 15.6953 -1.32362e-005 1.47355e-005 2.22212 7.62951e-006 2.83773e-013 6.57857e-016 -2.48216e-006 -4.52848e-007 1.61867 1.66536e-016 -2.38419e-007 2.55437e-008 2.9589e-008 8.30071e-008 1.40697 0.687971 0.883715 87.9223 4.36655 -34.1297 2.26827 7.62951e-006 9.53675e-007 12.9213 1.52904e-005 -3.23935e-006 2.09769 3.81476e-006 4.25437e-013 -5.88437e-006 8.94681e-006 4.88127e-007 1.53753 -2.90883e-014 -9.53674e-007 -4.4712e-007 8.98731e-006 2.29545e-006 -3.8993 0.51952 3.57658 -78.7314 -5.08015 176.29 3.92615 -7.62941e-006 -5.32907e-015 -85.5798 -9.84641e-007 -1.74949e-005 6.12318 -7.62942e-006 -2.44249e-014 129.065 -0.00176151 -0.00216905 9.94776 -7.01398e-012 -0.00107574 -49.7805 -17.4477 4.5879 0.881231 -0.110978 -0.0158851 110.743 3.26073 -176.91 2.32135 -4.76843e-007 8.88179e-016 15.4358 0.0118002 0.0129192 1.63293 -3.81475e-006 -4.76837e-007 3.28507e-006 0.00713784 -8.28245e-007 1.72131 2.49804e-015 2.38419e-007 -179.962 0.0116023 0.0010207 0.994829 0.967338 1.09416 74.9037 9.47621 -25.8936 2.202 0.000686654 0.00056076 11.3915 0.0236364 -0.0576488 1.84925 -0.000913632 -0.00102234 0.00239937 0.0140946 -0.0198787 1.70977 1.90737e-006 -3.8147e-006 179.962 0.0116843 -0.00118985 1.37484 1.34023 0.0710766 72.2647 -0.836666 2.59012 2.26123 -3.81467e-006 0.00086093 17.2394 -0.0171063 -0.0551247 2.22213 7.19477e-011 0.000980377 -0.00698543 -0.0135188 0.0454615 1.61867 -5.20424e-018 2.38418e-007 -179.962 -0.0101593 0.000269895 1.40692 0.687871 -0.883903 79.3381 -6.54439 31.2872 2.26827 0 3.81469e-006 29.469 3.27783e-006 9.54994e-006 2.0977 -2.66457e-015 1.77635e-015 2.11207e-012 -1.72687e-005 1.76818e-006 1.53753 3.48838e-013 1.33227e-015 -179.961 -0.00360147 -0.00574796 4.9071 -0.00428009 -2.38424e-007 -6.99591 0.00737701 -1.78299 5.56426 -1.28359 -9.56065e-007 3.47628 0.328143 1.47357 2.79364 -0.00202179 1.76681e-012 10.3849 0.217167 1.46219 2.79273 7.6294e-006 1.19209e-007 15.9844 0.359152 0.168526 4.19087 0.0665894 -2.38452e-007 -169.465 0.292096 179.734 6.95116 -4.26326e-014 -5.55111e-016 9.69497e-007 9.96127e-006 -4.30302e-009 
